<?xml version="1.0" encoding="UTF-8"?>
<svg version="1.1" xmlns="http://www.w3.org/2000/svg" width="1000" height="1000">
<path d="M0 0 C1.54268481 -0.00115563 3.08536934 -0.00274611 4.62805331 -0.00472724 C8.81803399 -0.00885918 13.00799158 -0.00685805 17.1979723 -0.00374103 C21.73492391 -0.00146214 26.27187178 -0.00497866 30.80882263 -0.00772095 C39.67335445 -0.01214964 48.53787776 -0.01121556 57.4024099 -0.00830831 C64.60309885 -0.00604484 71.80378543 -0.00574583 79.00447464 -0.00683212 C80.03138838 -0.00698536 81.05830211 -0.00713859 82.11633445 -0.00729647 C84.20266544 -0.0076162 86.28899643 -0.00794041 88.37532742 -0.00826906 C107.89802944 -0.01111482 127.42072675 -0.00784997 146.94342799 -0.00246869 C163.70379362 0.0020079 180.46415232 0.00121465 197.22451782 -0.00338745 C216.70171746 -0.00873306 236.178913 -0.01085006 255.65611327 -0.00777519 C257.73025171 -0.00745664 259.80439015 -0.00714227 261.87852859 -0.00683212 C262.89901228 -0.00667785 263.91949596 -0.00652357 264.97090339 -0.00636462 C272.17216591 -0.00550012 279.37342584 -0.00696071 286.57468796 -0.00931168 C295.33612604 -0.01210929 304.09755516 -0.01137184 312.8589922 -0.00603093 C317.33114466 -0.00339484 321.80328214 -0.00238744 326.27543449 -0.00568008 C330.36311225 -0.00864434 334.45076103 -0.00704809 338.53843613 -0.00170253 C340.02250557 -0.00057902 341.50657742 -0.00116808 342.99064533 -0.00357832 C344.99687662 -0.00658853 347.00311468 -0.00292429 349.0093441 0.0011425 C350.12692144 0.00130485 351.24449878 0.00146721 352.39594209 0.00163448 C355.00479126 0.12698364 355.00479126 0.12698364 357.00479126 1.12698364 C356.67479126 64.81698364 356.34479126 128.50698364 356.00479126 194.12698364 C349.07479126 195.77698364 342.14479126 197.42698364 335.00479126 199.12698364 C312.92376149 208.88743883 295.82361427 222.96689592 286.62979126 245.68948364 C285.69822926 248.15453519 284.84677602 250.62801605 284.00479126 253.12698364 C283.66447876 254.11440552 283.32416626 255.10182739 282.97354126 256.11917114 C276.63157474 278.25733205 281.16595652 303.18549941 292.00479126 323.12698364 C294.430762 327.02117715 297.08782002 330.58938022 300.00479126 334.12698364 C300.61967407 334.90428833 301.23455688 335.68159302 301.86807251 336.48245239 C315.36654565 352.71974617 333.49198993 358.59385159 352.96450806 364.46609497 C355.00479126 365.12698364 355.00479126 365.12698364 357.00479126 366.12698364 C357.00479126 401.43698364 357.00479126 436.74698364 357.00479126 473.12698364 C341.66266194 473.85756123 326.46061723 474.37304986 311.1234436 474.42214966 C308.63835958 474.43365618 306.15330001 474.45408665 303.66836548 474.4836731 C263.93400106 474.95314182 227.52394768 468.49719086 198.00479126 440.12698364 C197.01003792 439.20767133 196.0152444 438.28840251 195.02041626 437.36917114 C186.17078106 429.02425239 179.11672498 419.60954103 171.9725647 409.80032349 C168.65588628 405.29441422 165.22860807 400.87387006 161.81729126 396.43948364 C156.00507862 388.84624398 150.39760759 381.14041775 144.92666626 373.29885864 C141.85357275 368.89506159 138.71616882 364.53929574 135.56729126 360.18948364 C134.75675293 359.06848267 134.75675293 359.06848267 133.92984009 357.92483521 C131.20952378 354.16491015 128.48306734 350.40954379 125.75088501 346.65823364 C119.9921721 338.74108391 114.29243409 330.78218845 108.69229126 322.75198364 C108.12252563 321.94897827 107.55276001 321.1459729 106.96572876 320.31863403 C106.44623657 319.56703003 105.92674438 318.81542603 105.39151001 318.04104614 C104.9296228 317.38056274 104.4677356 316.72007935 103.99185181 316.0395813 C103.00479126 314.12698364 103.00479126 314.12698364 103.00479126 310.12698364 C103.53209839 309.93177124 104.05940552 309.73655884 104.60269165 309.53543091 C127.64784982 300.9100646 148.06846972 290.63186538 158.88760376 267.21633911 C168.98782043 244.29180454 168.82989595 222.60494527 159.86221313 199.19680786 C157.77645817 194.16177637 155.06231673 189.62215354 152.00479126 185.12698364 C151.47240845 184.33034302 150.94002563 183.53370239 150.39151001 182.71292114 C138.14915259 165.70802372 118.85523477 158.08174382 99.00479126 154.12698364 C51.41552786 147.78174852 3.01376433 151.49914622 -44.99520874 151.12698364 C-44.99520874 247.15698364 -44.99520874 343.18698364 -44.99520874 442.12698364 C-37.40520874 441.79698364 -29.81520874 441.46698364 -21.99520874 441.12698364 C-16.05520874 441.12698364 -10.11520874 441.12698364 -3.99520874 441.12698364 C-3.99520874 399.54698364 -3.99520874 357.96698364 -3.99520874 315.12698364 C16.13479126 315.12698364 36.26479126 315.12698364 57.00479126 315.12698364 C61.49694401 320.2608725 65.60689174 325.13030906 69.44229126 330.68948364 C69.94107788 331.40418823 70.4398645 332.11889282 70.95376587 332.85525513 C72.04811096 334.42480922 73.14022522 335.99592053 74.2303772 337.56838989 C76.13187763 340.31023421 78.04049896 343.04702822 79.95010376 345.78323364 C88.12038764 357.49819372 96.2383738 369.24831803 104.30947876 381.0317688 C111.57162769 391.63225025 118.91058189 402.1770096 126.29678345 412.69143677 C127.90477068 414.98435853 129.50642425 417.2815604 131.10635376 419.58010864 C160.56739626 461.79409751 196.93734938 496.37809566 249.11026001 506.13088989 C264.38279768 508.74127376 279.53330416 509.27240988 294.99307251 509.22463989 C296.79053203 509.22277036 298.58799206 509.22134899 300.38545227 509.22035217 C305.07230077 509.21656914 309.75911732 509.20677582 314.44595337 509.19564819 C319.24616057 509.1853425 324.04637302 509.1808351 328.84658813 509.17581177 C338.23266973 509.16514895 347.61872782 509.1481244 357.00479126 509.12698364 C357.02796342 520.12324928 357.04573124 531.1195091 357.05660343 542.11579418 C357.06182157 547.2218277 357.06889987 552.32784451 357.08023071 557.43386841 C357.0910975 562.36162289 357.09707616 567.28936131 357.0996685 572.21712685 C357.1015159 574.09698044 357.10512338 575.97683316 357.11052132 577.85667992 C357.11778201 580.49001337 357.11878007 583.12328046 357.11831665 585.75662231 C357.12191193 586.53345871 357.1255072 587.3102951 357.12921143 588.110672 C357.12194338 591.92839024 356.81574403 595.40432274 356.00479126 599.12698364 C319.47502157 600.26626679 282.95048082 600.27661035 246.40755928 600.26228309 C240.35196532 600.25997473 234.29637416 600.25972443 228.24077988 600.26079941 C226.93123971 600.26102926 226.93123971 600.26102926 225.59524419 600.26126375 C223.82011478 600.26158357 222.04498537 600.26190778 220.26985596 600.26223634 C203.78137094 600.26506101 187.29289156 600.26185011 170.80440746 600.25643598 C156.71592583 600.25195318 142.62745244 600.25276184 128.53897095 600.25735474 C112.06156463 600.26272413 95.58416317 600.26480473 79.10675609 600.26174247 C77.34612266 600.261424 75.58548923 600.26110963 73.8248558 600.26079941 C72.95917975 600.26064513 72.0935037 600.26049086 71.20159505 600.26033191 C65.15555561 600.25947513 59.10951932 600.26091098 53.06348038 600.26327896 C45.6940088 600.26610283 38.32454786 600.26528396 30.95507748 600.25999822 C27.2093474 600.25739848 23.46363494 600.25629184 19.71790504 600.25964737 C6.71193391 600.27021752 -6.28865482 600.26705916 -19.28552246 599.72436523 C-20.12855639 599.69139001 -20.97159033 599.65841479 -21.84017074 599.62444031 C-46.09894854 598.43498721 -68.15265561 589.94319522 -85.99520874 573.12698364 C-85.99520874 572.46698364 -85.99520874 571.80698364 -85.99520874 571.12698364 C-86.65520874 571.12698364 -87.31520874 571.12698364 -87.99520874 571.12698364 C-96.96868368 563.12294228 -104.45673419 550.4825984 -107.99520874 539.12698364 C-108.26848999 538.26460083 -108.54177124 537.40221802 -108.82333374 536.51370239 C-113.05750798 521.50729074 -113.29535455 505.61151891 -113.24917603 490.12561035 C-113.25148798 488.40128499 -113.25466938 486.67696063 -113.25863051 484.95263827 C-113.26688613 480.27390256 -113.26289592 475.59524971 -113.25665808 470.91651392 C-113.25209634 465.84762196 -113.25913559 460.77874335 -113.26461792 455.70985413 C-113.27347378 445.8039585 -113.27160708 435.89809332 -113.26579264 425.99219655 C-113.2612616 417.93691986 -113.26066946 409.88165165 -113.26284027 401.82637405 C-113.26314674 400.67653101 -113.2634532 399.52668798 -113.26376896 398.34200121 C-113.26440845 396.00557878 -113.26505688 393.66915636 -113.26571414 391.33273394 C-113.27140614 369.46610724 -113.26487704 347.59949734 -113.25411341 325.7328734 C-113.24517654 306.99769861 -113.24673326 288.26254861 -113.25595093 269.52737427 C-113.26666943 247.73174336 -113.27085943 225.93612716 -113.2647264 204.14049399 C-113.26408935 201.8136499 -113.26346061 199.4868058 -113.26284027 197.1599617 C-113.26253172 196.01532459 -113.26222317 194.87068748 -113.26190527 193.6913644 C-113.26018324 185.65102414 -113.26308273 177.61069327 -113.26779938 169.57035446 C-113.27342568 159.76454222 -113.27185499 149.95876198 -113.26123789 140.15295337 C-113.25600504 135.15638993 -113.25388349 130.1598797 -113.26053619 125.16331673 C-113.26654739 120.57903385 -113.26313638 115.99485294 -113.25258109 111.41057916 C-113.25036881 109.76280809 -113.25143369 108.11502818 -113.25633267 106.46726291 C-113.33388567 78.18680543 -108.17510348 54.43867264 -89.99520874 32.12698364 C-89.44348999 31.34581177 -88.89177124 30.56463989 -88.32333374 29.75979614 C-87.88505249 29.22096802 -87.44677124 28.68213989 -86.99520874 28.12698364 C-86.33520874 28.12698364 -85.67520874 28.12698364 -84.99520874 28.12698364 C-84.99520874 27.46698364 -84.99520874 26.80698364 -84.99520874 26.12698364 C-60.58517445 3.09365411 -32.03738758 -0.05324182 0 0 Z " fill="#217ABE" transform="translate(127.99520874023438,199.87301635742188)"/>
<path d="M0 0 C1.63706968 0.0002826 3.2741395 0.00012272 4.91120911 -0.0004425 C9.32365142 -0.00072765 13.73606616 0.00512311 18.14850211 0.01213145 C22.77159212 0.01841233 27.39468287 0.01897252 32.01777649 0.02015686 C40.75807694 0.02325628 49.49836477 0.03145083 58.23865968 0.04150635 C68.19519277 0.05271078 78.15172649 0.05818882 88.10826433 0.06320179 C108.57649796 0.07363469 129.04471431 0.09196278 149.51293945 0.11352539 C150.17293945 10.34352539 150.83293945 20.57352539 151.51293945 31.11352539 C157.7755429 31.97445297 157.7755429 31.97445297 163.87426758 32.10351562 C164.62865112 32.07696396 165.38303467 32.05041229 166.16027832 32.02305603 C166.94696899 31.98974686 167.73365967 31.95643768 168.54418945 31.92211914 C170.25902427 31.86391258 171.97386834 31.80597813 173.6887207 31.74829102 C176.35475996 31.65130395 179.02057868 31.55072191 181.6862793 31.44482422 C184.28450182 31.34408268 186.88291834 31.25735274 189.48168945 31.17211914 C190.26838013 31.13678574 191.0550708 31.10145233 191.86560059 31.06504822 C198.2234751 30.86783936 203.74324456 31.64028342 209.45043945 34.67602539 C212.4435657 38.21335641 212.79806127 41.55157625 212.51293945 46.11352539 C211.31055383 49.08784771 210.44759641 50.52467764 207.74359131 52.22824097 C205.02684454 53.30644311 202.93182109 53.35397898 200.01000977 53.34057617 C198.89384277 53.34033447 197.77767578 53.34009277 196.62768555 53.33984375 C195.46060059 53.32961182 194.29351563 53.31937988 193.09106445 53.30883789 C191.47530518 53.30581665 191.47530518 53.30581665 189.8269043 53.30273438 C185.80553933 53.29227532 181.78423509 53.26435274 177.76293945 53.23852539 C164.27418945 53.17665039 164.27418945 53.17665039 150.51293945 53.11352539 C150.51293945 73.57352539 150.51293945 94.03352539 150.51293945 115.11352539 C156.45293945 114.61852539 156.45293945 114.61852539 162.51293945 114.11352539 C165.8295697 114.00729536 169.12654508 113.92766973 172.44262695 113.91040039 C173.32145538 113.90470032 174.20028381 113.89900024 175.10574341 113.89312744 C176.93905469 113.8837862 178.77238195 113.87718757 180.60571289 113.87329102 C183.40320342 113.86347181 186.19999185 113.83230223 188.99731445 113.80102539 C190.79158099 113.79450362 192.58585269 113.78924992 194.38012695 113.78540039 C195.20833954 113.77305359 196.03655212 113.76070679 196.88986206 113.74798584 C201.83023426 113.76695373 205.25320251 114.33341797 209.51293945 117.11352539 C212.20176329 121.14676115 212.29543782 124.37691296 211.51293945 129.11352539 C208.44146417 133.77027824 205.25897028 134.66703787 200.09988403 135.72747803 C195.52079294 136.41081158 190.97340549 136.35742787 186.3527832 136.30883789 C184.80706383 136.30459305 184.80706383 136.30459305 183.2301178 136.30026245 C179.97010202 136.28915402 176.71037084 136.26406702 173.45043945 136.23852539 C171.22713616 136.22848352 169.00382851 136.21935979 166.78051758 136.21118164 C161.35779626 136.19095515 155.93568279 136.15178857 150.51293945 136.11352539 C150.51293945 146.34352539 150.51293945 156.57352539 150.51293945 167.11352539 C99.52793945 167.60852539 99.52793945 167.60852539 47.51293945 168.11352539 C47.51293945 172.07352539 47.51293945 176.03352539 47.51293945 180.11352539 C47.18293945 186.05352539 46.85293945 191.99352539 46.51293945 198.11352539 C9.88293945 198.11352539 -26.74706055 198.11352539 -64.48706055 198.11352539 C-64.48706055 214.28352539 -64.48706055 230.45352539 -64.48706055 247.11352539 C-68.98875238 275.62424035 -77.17969006 299.79028513 -100.98706055 317.67602539 C-121.47871657 331.3583423 -144.24783117 335.27784284 -168.42456055 335.73852539 C-170.10693915 335.77587377 -171.78931215 335.81347514 -173.47167969 335.85131836 C-196.17751328 336.33735729 -218.79964878 336.29209224 -241.48706055 335.11352539 C-241.15706055 323.56352539 -240.82706055 312.01352539 -240.48706055 300.11352539 C-237.99594727 300.09894287 -235.50483398 300.08436035 -232.93823242 300.06933594 C-224.64809585 300.01868548 -216.35814114 299.95203963 -208.0681839 299.87781048 C-203.04880929 299.83334617 -198.0295114 299.79403936 -193.01000977 299.76708984 C-188.15336665 299.74081542 -183.29702267 299.7002485 -178.44056702 299.65033913 C-176.6005479 299.63383179 -174.76047725 299.62221827 -172.9203949 299.61591148 C-158.58642916 299.56187893 -143.28489516 299.38661173 -130.48706055 292.11352539 C-129.58342773 291.60821289 -128.67979492 291.10290039 -127.7487793 290.58227539 C-114.88424142 282.92273999 -107.79998279 271.63290737 -103.3503418 257.50415039 C-101.20564569 248.59058411 -100.32881475 239.67914467 -100.35424805 230.52758789 C-100.35329132 229.74515717 -100.35233459 228.96272644 -100.35134888 228.15658569 C-100.35067375 226.51462727 -100.35248098 224.87266606 -100.35668945 223.23071289 C-100.36203262 220.75148357 -100.35672902 218.27243658 -100.3503418 215.79321289 C-99.881597 203.32454245 -99.881597 203.32454245 -101.48706055 191.11352539 C-103.2501717 189.39221969 -104.82223019 188.44576116 -107.0300293 187.35180664 C-113.86175237 183.90879199 -120.37231318 178.78121842 -125.48706055 173.11352539 C-126.1006543 172.46899414 -126.71424805 171.82446289 -127.34643555 171.16040039 C-143.71157711 153.56479706 -149.91172663 130.14122551 -149.63549805 106.52368164 C-148.45095243 79.31030472 -136.50633706 56.3985342 -116.9519043 37.68774414 C-92.16589038 15.83003567 -59.88044226 4.79652391 -27.48706055 1.11352539 C-26.35515431 0.98097272 -26.35515431 0.98097272 -25.20038128 0.84574223 C-16.80464465 -0.03221493 -8.43002572 -0.02053769 0 0 Z M92.03662109 49.20532227 C90.48473083 49.23577637 90.48473083 49.23577637 88.90148926 49.2668457 C87.83611938 49.2884375 86.77074951 49.3100293 85.6730957 49.33227539 C84.1798175 49.3617627 84.1798175 49.3617627 82.65637207 49.3918457 C78.96271285 49.46498468 75.2690775 49.53932514 71.57543945 49.61352539 C63.30481445 49.77852539 55.03418945 49.94352539 46.51293945 50.11352539 C46.51293945 72.88352539 46.51293945 95.65352539 46.51293945 119.11352539 C65.65293945 119.44352539 84.79293945 119.77352539 104.51293945 120.11352539 C104.51293945 96.68352539 104.51293945 73.25352539 104.51293945 49.11352539 C100.34769881 49.11352539 96.19861129 49.12229004 92.03662109 49.20532227 Z M-47.23706055 88.98852539 C-50.93827596 94.12910235 -52.03676289 97.73697821 -51.48706055 104.11352539 C-49.66808249 109.38856177 -47.65891484 114.40953123 -42.5456543 117.15649414 C-37.65021889 119.1061545 -33.71555604 119.48060118 -28.6315918 118.04711914 C-24.30041639 116.16159833 -20.82514815 113.25267547 -18.3190918 109.24633789 C-16.43483422 104.41626918 -16.67017324 98.65261327 -18.24487305 93.75805664 C-20.06503329 89.93858652 -22.15912189 86.79734689 -25.48706055 84.11352539 C-33.73768906 81.36331589 -41.18761361 82.66410359 -47.23706055 88.98852539 Z " fill="#217ABE" transform="translate(772.487060546875,371.886474609375)"/>
<path d="M0 0 C1.43569336 -0.00737183 1.43569336 -0.00737183 2.90039062 -0.01489258 C15.20090198 -0.01489258 28.50401941 0.35084168 40.0234375 5.08203125 C40.8484375 5.41976563 41.6734375 5.7575 42.5234375 6.10546875 C54.83378545 11.6976695 61.09149395 19.79620758 66.0234375 32.08203125 C69.08037774 42.86176788 68.42160405 57.28845354 63.0234375 67.08203125 C55.66577263 79.168109 45.02779702 84.741458 31.5859375 88.26953125 C16.2108853 91.94838037 0.75441632 92.25733212 -14.9765625 92.26953125 C-15.70797455 92.2706189 -16.4393866 92.27170654 -17.19296265 92.27282715 C-32.14113618 92.27031699 -47.02771805 91.61591855 -61.9765625 91.08203125 C-61.9765625 61.38203125 -61.9765625 31.68203125 -61.9765625 1.08203125 C-50.5915625 0.83453125 -50.5915625 0.83453125 -38.9765625 0.58203125 C-36.63691406 0.52982422 -34.29726562 0.47761719 -31.88671875 0.42382812 C-21.25818171 0.19466513 -10.63111832 0.02826983 0 0 Z " fill="#217ABE" transform="translate(185.9765625,386.91796875)"/>
<path d="M0 0 C1.25159912 0.00523682 2.50319824 0.01047363 3.79272461 0.01586914 C4.78942421 0.01799156 4.78942421 0.01799156 5.80625916 0.02015686 C7.93590735 0.02577021 10.06545175 0.03832485 12.19506836 0.05102539 C13.63582205 0.05603868 15.07657739 0.06060188 16.51733398 0.06469727 C20.05577938 0.07574394 23.59416375 0.09301747 27.13256836 0.11352539 C23.60325401 9.57314841 19.20607184 18.62498466 14.88256836 27.73852539 C12.32506836 33.14227539 9.76756836 38.54602539 7.13256836 44.11352539 C29.40756836 45.10352539 29.40756836 45.10352539 52.13256836 46.11352539 C51.12626346 51.14504986 50.24392339 52.7127056 47.19506836 56.61352539 C46.79610352 57.12979492 46.39713867 57.64606445 45.98608398 58.17797852 C45.13905388 59.27266284 44.28821065 60.36440589 43.43383789 61.45336914 C41.73541831 63.62020838 40.05875384 65.8033785 38.38208008 67.98706055 C37.54525139 69.076344 36.70702129 70.16455218 35.86743164 71.25170898 C33.06252545 74.88560873 30.3076829 78.55345816 27.57006836 82.23852539 C21.16678831 90.79123688 14.4008605 98.95425635 7.17553711 106.82446289 C5.0780285 109.11605076 5.0780285 109.11605076 3.13647461 111.72680664 C1.17230325 114.06619982 -0.49898993 115.39860106 -3.11743164 116.92602539 C-4.17704102 117.55444336 -4.17704102 117.55444336 -5.25805664 118.19555664 C-6.05469727 118.64995117 -6.05469727 118.64995117 -6.86743164 119.11352539 C-8.62340303 114.99672633 -6.89022632 111.70337584 -5.33227539 107.81274414 C-5.0565419 107.09931351 -4.78080841 106.38588287 -4.49671936 105.65083313 C-3.60973213 103.36340691 -2.70755692 101.0823197 -1.80493164 98.80102539 C-1.2238588 97.30857375 -0.64377096 95.81573821 -0.06469727 94.32250977 C3.60307281 84.89351804 7.37501014 75.50742094 11.13256836 66.11352539 C-4.04743164 66.11352539 -19.22743164 66.11352539 -34.86743164 66.11352539 C-27.03277345 48.20573525 -27.03277345 48.20573525 -23.95727539 42.20336914 C-23.28162239 40.87299022 -22.60701887 39.54207789 -21.93334961 38.21069336 C-21.5943866 37.54173035 -21.25542358 36.87276733 -20.90618896 36.18353271 C-19.106284 32.59673108 -17.36406548 28.98227228 -15.62133789 25.36743164 C-15.10160904 24.29094864 -15.10160904 24.29094864 -14.57138062 23.19271851 C-13.15893303 20.26572416 -11.74833265 17.33784616 -10.33935547 14.40917969 C-9.28930656 12.22772844 -8.23674237 10.0475057 -7.18383789 7.86743164 C-6.86411514 7.20095108 -6.5443924 6.53447052 -6.21498108 5.84779358 C-3.4536866 0.136736 -3.4536866 0.136736 0 0 Z " fill="#217ABE" transform="translate(480.867431640625,420.886474609375)"/>
</svg>
